<svg xmlns="http://www.w3.org/2000/svg" version="1.1" xmlns:xlink="http://www.w3.org/1999/xlink" xmlns:svgjs="http://svgjs.dev/svgjs" width="1000" height="1000" viewBox="0 0 1000 1000"><rect width="1000" height="1000" fill="#ffffff"></rect><g transform="matrix(0.7,0,0,0.7,149.57576095333053,376.6685633057985)"><svg viewBox="0 0 396 140" data-background-color="#ffffff" preserveAspectRatio="xMidYMid meet" height="353" width="1000" xmlns="http://www.w3.org/2000/svg" xmlns:xlink="http://www.w3.org/1999/xlink"><g id="tight-bounds" transform="matrix(1,0,0,1,0.23999809492011082,-0.12383190130228172)"><svg viewBox="0 0 395.52 140.24766380260456" height="140.24766380260456" width="395.52"><g><svg viewBox="0 0 666.7355836073307 236.41815325392966" height="140.24766380260456" width="395.52"><g transform="matrix(1,0,0,1,271.21558360733064,13.03111239302062)"><svg viewBox="0 0 395.52 210.35592846788842" height="210.35592846788842" width="395.52"><g id="textblocktransform"><svg viewBox="0 0 395.52 210.35592846788842" height="210.35592846788842" width="395.52" id="textblock"><g><svg viewBox="0 0 395.52 113.45593625498007" height="113.45593625498007" width="395.52"><g transform="matrix(1,0,0,1,0,0)"><svg width="395.52" viewBox="4.650000095367432 -35.75 125.48999786376953 36" height="113.45593625498007" data-palette-color="#1e55b3"><path d="M7.2 0L4.65 0 4.65-35.5 19.25-35.5Q21.5-35.5 23.38-34.55 25.25-33.6 26.65-32.02 28.05-30.45 28.83-28.5 29.6-26.55 29.6-24.5L29.6-24.5Q29.6-21.65 28.33-19.13 27.05-16.6 24.83-15 22.6-13.4 19.55-13.4L19.55-13.4 7.2-13.4 7.2 0ZM7.2-33.2L7.2-15.75 19.45-15.75Q21.8-15.75 23.5-17 25.2-18.25 26.1-20.25 27-22.25 27-24.5L27-24.5Q27-26.85 25.93-28.83 24.85-30.8 23.08-32 21.3-33.2 19.15-33.2L19.15-33.2 7.2-33.2ZM49.85 0.25L49.85 0.25Q46.15 0.25 43.1-1.28 40.05-2.8 37.85-5.35 35.65-7.9 34.45-11.13 33.25-14.35 33.25-17.75L33.25-17.75Q33.25-21.3 34.5-24.53 35.75-27.75 38.02-30.28 40.3-32.8 43.32-34.27 46.35-35.75 49.9-35.75L49.9-35.75Q53.65-35.75 56.67-34.2 59.7-32.65 61.9-30.05 64.1-27.45 65.3-24.25 66.5-21.05 66.5-17.75L66.5-17.75Q66.5-14.15 65.25-10.93 64-7.7 61.72-5.18 59.45-2.65 56.42-1.2 53.4 0.25 49.85 0.25ZM35.8-17.75L35.8-17.75Q35.8-14.7 36.85-11.9 37.9-9.1 39.77-6.9 41.65-4.7 44.22-3.4 46.8-2.1 49.9-2.1L49.9-2.1Q53.05-2.1 55.65-3.45 58.25-4.8 60.1-7.05 61.95-9.3 62.92-12.08 63.9-14.85 63.9-17.75L63.9-17.75Q63.9-20.8 62.87-23.6 61.85-26.4 59.95-28.6 58.05-30.8 55.47-32.1 52.9-33.4 49.9-33.4L49.9-33.4Q46.7-33.4 44.1-32.05 41.5-30.7 39.67-28.45 37.85-26.2 36.82-23.43 35.8-20.65 35.8-17.75ZM75.89 0L73.34 0 73.34-35.5 88.09-35.5Q90.39-35.5 92.27-34.55 94.14-33.6 95.52-32.02 96.89-30.45 97.67-28.5 98.44-26.55 98.44-24.5L98.44-24.5Q98.44-21.85 97.39-19.55 96.34-17.25 94.47-15.7 92.59-14.15 90.09-13.8L90.09-13.8 98.94 0 95.99 0 87.39-13.4 75.89-13.4 75.89 0ZM75.89-33.2L75.89-15.75 88.34-15.75Q90.64-15.75 92.34-17 94.04-18.25 94.97-20.25 95.89-22.25 95.89-24.5L95.89-24.5Q95.89-26.8 94.82-28.78 93.74-30.75 91.97-31.98 90.19-33.2 87.99-33.2L87.99-33.2 75.89-33.2ZM130.14-35.5L130.14-33.2 117.14-33.2 117.14 0 114.59 0 114.59-33.2 101.59-33.2 101.59-35.5 130.14-35.5Z" opacity="1" transform="matrix(1,0,0,1,0,0)" fill="#000000" class="undefined-text-0" data-fill-palette-color="primary" id="text-0"></path></svg></g></svg></g><g transform="matrix(1,0,0,1,0,140.24015986231075)"><svg viewBox="0 0 133.12647265912355 70.11576860557768" height="70.11576860557768" width="133.12647265912355"><g transform="matrix(1,0,0,1,0,0)"><svg width="133.12647265912355" viewBox="2.5 -37 71.19000244140625 37.5" height="70.11576860557768" data-palette-color="#ff585f"><path d="M30.9-32.1L30.9-32.1Q31.3-31.8 31.35-31.43 31.4-31.05 31.15-30.65L31.15-30.65Q30.9-30.3 30.53-30.28 30.15-30.25 29.8-30.45L29.8-30.45Q27.7-31.9 25.23-32.75 22.75-33.6 19.95-33.6L19.95-33.6Q16.75-33.6 13.98-32.43 11.2-31.25 9.1-29.1 7-26.95 5.8-24 4.6-21.05 4.6-17.5L4.6-17.5Q4.6-13.95 5.8-11 7-8.05 9.1-5.9 11.2-3.75 13.98-2.58 16.75-1.4 19.95-1.4L19.95-1.4Q22.75-1.4 25.2-2.25 27.65-3.1 29.75-4.5L29.75-4.5Q30.1-4.75 30.5-4.7 30.9-4.65 31.15-4.3L31.15-4.3Q31.4-3.95 31.35-3.55 31.3-3.15 30.95-2.9L30.95-2.9Q29.75-2.05 27.93-1.25 26.1-0.45 24.05 0.03 22 0.5 19.95 0.5L19.95 0.5Q16.35 0.5 13.2-0.85 10.05-2.2 7.65-4.63 5.25-7.05 3.88-10.33 2.5-13.6 2.5-17.5L2.5-17.5Q2.5-21.4 3.88-24.68 5.25-27.95 7.65-30.38 10.05-32.8 13.2-34.15 16.35-35.5 19.95-35.5L19.95-35.5Q23-35.5 25.83-34.6 28.65-33.7 30.9-32.1ZM34.95-25.15L34.95-25.15 46.55-25.15Q46.95-25.15 47.22-24.85 47.5-24.55 47.5-24.2L47.5-24.2Q47.5-23.8 47.22-23.53 46.95-23.25 46.55-23.25L46.55-23.25 34.95-23.25Q34.6-23.25 34.3-23.55 34-23.85 34-24.2L34-24.2Q34-24.6 34.3-24.88 34.6-25.15 34.95-25.15ZM40.05-32.5L40.05-32.5Q40.5-32.5 40.77-32.2 41.05-31.9 41.05-31.5L41.05-31.5 41.05-5.45Q41.05-3.8 41.47-3.03 41.9-2.25 42.55-2.02 43.2-1.8 43.8-1.8L43.8-1.8Q44.15-1.8 44.4-1.9 44.65-2 45-2L45-2Q45.35-2 45.6-1.73 45.85-1.45 45.85-1.1L45.85-1.1Q45.85-0.65 45.27-0.33 44.7 0 43.85 0L43.85 0Q43.55 0 42.77-0.03 42-0.05 41.12-0.48 40.25-0.9 39.65-2.02 39.05-3.15 39.05-5.35L39.05-5.35 39.05-31.5Q39.05-31.9 39.35-32.2 39.65-32.5 40.05-32.5ZM54.05 0L54.05 0Q53.6 0 53.32-0.3 53.05-0.6 53.05-1L53.05-1 53.05-23.95Q53.05-24.35 53.35-24.65 53.65-24.95 54.05-24.95L54.05-24.95Q54.5-24.95 54.77-24.65 55.05-24.35 55.05-23.95L55.05-23.95 55.05-15.5 54.2-14.2Q54.2-16.15 54.87-18.15 55.55-20.15 56.85-21.88 58.15-23.6 60.02-24.68 61.9-25.75 64.35-25.75L64.35-25.75Q65.05-25.75 65.85-25.55 66.65-25.35 66.65-24.6L66.65-24.6Q66.65-24.15 66.4-23.85 66.15-23.55 65.75-23.55L65.75-23.55Q65.45-23.55 65.02-23.78 64.6-24 63.8-24L63.8-24Q62.2-24 60.65-23.05 59.1-22.1 57.82-20.53 56.55-18.95 55.8-17.1 55.05-15.25 55.05-13.5L55.05-13.5 55.05-1Q55.05-0.6 54.75-0.3 54.45 0 54.05 0ZM73.69-36L73.69-1Q73.69-0.6 73.39-0.3 73.09 0 72.69 0L72.69 0Q72.24 0 71.97-0.3 71.69-0.6 71.69-1L71.69-1 71.69-36Q71.69-36.4 71.99-36.7 72.29-37 72.69-37L72.69-37Q73.14-37 73.42-36.7 73.69-36.4 73.69-36L73.69-36Z" opacity="1" transform="matrix(1,0,0,1,0,0)" fill="#000000" class="undefined-text-1" data-fill-palette-color="secondary" id="text-1"></path></svg></g></svg></g></svg></g></svg></g><g><svg viewBox="0 0 244.43135999999996 236.41815325392966" height="236.41815325392966" width="244.43135999999996"><g><svg xmlns="http://www.w3.org/2000/svg" xmlns:xlink="http://www.w3.org/1999/xlink" version="1.1" x="0" y="0" viewBox="1.1710000038146973 1.875 97.7030029296875 94.5" enable-background="new 0 0 100 100" xml:space="preserve" height="236.41815325392966" width="244.43135999999996" class="icon-icon-0" data-fill-palette-color="accent" id="icon-0"><path d="M92.812 49.125c-2.345 0-4.375 1.334-5.383 3.281l-27.775-4.741c-0.092-0.628-0.235-1.234-0.43-1.82l22.734-11.268c1.703 1.74 4.389 2.262 6.658 1.072C91.389 34.191 92.453 30.771 91 28c-1.453-2.768-4.875-3.834-7.646-2.381-2.172 1.143-3.273 3.49-2.957 5.785l-22.842 11.32c-0.492-0.637-1.05-1.221-1.673-1.732l18.902-26.375c0.938 0.109 1.906 0.016 2.84-0.373 2.886-1.207 4.248-4.521 3.043-7.41-1.204-2.885-4.521-4.246-7.406-3.042-2.885 1.205-4.247 4.521-3.042 7.408 0.317 0.76 0.788 1.403 1.353 1.935L52.777 39.235c-0.528-0.188-1.07-0.346-1.633-0.45l-1.179-19.699c2-0.823 3.41-2.789 3.41-5.086 0-3.037-2.463-5.5-5.5-5.5s-5.5 2.463-5.5 5.5c0 2.541 1.726 4.673 4.066 5.305l1.161 19.416c-0.691 0.103-1.359 0.267-1.999 0.496L24.944 12.771c0.818-1.131 1.306-2.518 1.306-4.021 0-3.797-3.078-6.875-6.875-6.875S12.5 4.953 12.5 8.75s3.078 6.875 6.875 6.875c1.009 0 1.964-0.223 2.827-0.613l20.281 25.947c-1.074 0.875-1.979 1.949-2.647 3.174l-18.602-6.435c0.005-0.1 0.03-0.194 0.03-0.297 0-3.223-2.614-5.84-5.84-5.84-3.225 0-5.839 2.617-5.839 5.84 0 3.228 2.614 5.841 5.839 5.841 1.855 0 3.489-0.882 4.558-2.229l18.715 6.473c-0.091 0.563-0.152 1.136-0.152 1.726 0 0.078 0.01 0.153 0.011 0.231L11.63 58.19c-1-1.605-2.767-2.682-4.797-2.682-3.127 0-5.662 2.535-5.662 5.662 0 3.128 2.535 5.662 5.662 5.662 2.967 0 5.374-2.291 5.617-5.195l26.773-8.72c0.554 1.49 1.428 2.82 2.546 3.905L30.218 73.656c-2.56-0.679-5.217 0.769-6.001 3.321-0.801 2.615 0.665 5.387 3.283 6.189 2.617 0.803 5.387-0.667 6.191-3.281 0.449-1.464 0.167-2.963-0.607-4.151l11.601-16.906c1.362 0.635 2.875 1 4.477 1 0.207 0 0.405-0.019 0.609-0.029l2.371 23.204C49.442 83.932 47.5 86.486 47.5 89.5c0 3.797 3.078 6.875 6.875 6.875s6.875-3.078 6.875-6.875c0-3.365-2.42-6.161-5.613-6.754L53.346 58.97c1.396-0.599 2.625-1.493 3.637-2.597l16.47 17.112c-0.521 0.841-0.827 1.828-0.827 2.89 0 3.037 2.463 5.5 5.5 5.5s5.5-2.463 5.5-5.5-2.463-5.5-5.5-5.5c-0.615 0-1.205 0.105-1.758 0.292-0.045-0.029-0.123-0.015-0.268 0.09L58.917 53.404c0.301-0.699 0.524-1.437 0.671-2.203l27.199 4.647c0.33 3.037 2.9 5.401 6.025 5.401 3.348 0 6.062-2.714 6.062-6.062C98.875 51.84 96.16 49.125 92.812 49.125z" fill="#000000" data-fill-palette-color="accent"></path></svg></g></svg></g></svg></g><defs></defs></svg><rect width="395.52" height="140.24766380260456" fill="none" stroke="none" visibility="hidden"></rect></g></svg></g></svg>